<svg width="7" height="7" viewBox="0 0 7 7" fill="none" xmlns="http://www.w3.org/2000/svg">
<path opacity="0.5" fill-rule="evenodd" clip-rule="evenodd" d="M1.28033 0.434513C0.987437 0.141621 0.512563 0.141621 0.21967 0.434513C-0.0732232 0.727407 -0.0732232 1.20228 0.21967 1.49517L2.18934 3.46484L0.21967 5.43451C-0.0732232 5.72741 -0.0732232 6.20228 0.21967 6.49517C0.512563 6.78807 0.987437 6.78807 1.28033 6.49517L3.25 4.5255L5.21967 6.49517C5.51256 6.78807 5.98744 6.78807 6.28033 6.49517C6.57322 6.20228 6.57322 5.72741 6.28033 5.43451L4.31066 3.46484L6.28033 1.49517C6.57322 1.20228 6.57322 0.727407 6.28033 0.434513C5.98744 0.141621 5.51256 0.141621 5.21967 0.434513L3.25 2.40418L1.28033 0.434513Z" fill="#6E328C"/>
</svg>
